<?xml version="1.0" standalone="no"?>
<!DOCTYPE svg PUBLIC "-//W3C//DTD SVG 20010904//EN"
 "http://www.w3.org/TR/2001/REC-SVG-20010904/DTD/svg10.dtd">
<svg version="1.0" xmlns="http://www.w3.org/2000/svg"
 width="566.000000pt" height="202.000000pt" viewBox="0 0 566.000000 202.000000"
 preserveAspectRatio="xMidYMid meet">

<g transform="translate(0.000000,202.000000) scale(0.100000,-0.100000)"
fill="#000000" stroke="none">
<path d="M2345 1960 c-21 -22 -43 -40 -49 -40 -14 0 -135 -130 -183 -198 -39
-54 -43 -66 -43 -117 0 -67 -19 -100 -86 -146 -30 -20 -53 -47 -69 -81 -23
-47 -24 -53 -10 -75 24 -36 40 -28 55 27 7 28 17 50 22 50 4 0 8 8 8 18 0 20
39 62 57 62 20 0 80 69 86 97 3 15 3 42 0 61 -7 39 20 95 54 113 13 7 23 21
23 32 0 19 48 77 63 77 13 0 37 27 37 42 0 22 22 38 52 38 17 0 28 5 28 13 0
8 9 22 20 32 26 24 25 35 -3 35 -14 0 -39 -16 -62 -40z"/>
<path d="M2527 1802 c-28 -30 -21 -76 14 -106 37 -31 72 -33 99 -6 29 29 25
71 -8 103 -33 32 -81 36 -105 9z"/>
<path d="M4335 1790 c-3 -5 -19 -10 -35 -10 -16 0 -32 -4 -35 -10 -3 -5 -15
-10 -26 -10 -10 0 -19 -4 -19 -10 0 -5 -9 -10 -20 -10 -11 0 -20 -4 -20 -10 0
-5 -7 -10 -15 -10 -8 0 -15 -4 -15 -10 0 -5 -5 -10 -10 -10 -15 0 -69 -56
-109 -112 -38 -52 -71 -160 -71 -228 1 -107 41 -201 120 -282 l56 -56 -28 -17
c-35 -20 -119 -102 -139 -135 -53 -85 -64 -228 -27 -327 33 -90 171 -213 239
-213 10 0 19 -4 19 -10 0 -5 15 -10 34 -10 19 0 38 -4 41 -10 8 -14 259 -13
304 1 20 6 52 15 71 21 36 10 121 48 130 58 3 3 21 17 40 30 40 28 65 54 88
92 9 16 20 28 24 28 4 0 8 9 8 19 0 11 5 23 10 26 6 3 10 17 10 30 0 13 5 27
10 30 6 4 10 55 10 120 0 65 -4 116 -10 120 -5 3 -10 16 -10 28 0 12 -9 33
-20 47 -11 14 -20 28 -20 33 0 13 -124 131 -152 146 -23 12 -25 16 -13 27 7 8
18 14 23 14 16 0 122 108 122 124 0 9 5 16 10 16 6 0 10 9 10 19 0 11 5 23 10
26 12 8 13 179 1 203 -5 9 -15 30 -22 47 -16 34 -93 115 -109 115 -6 0 -18 7
-27 15 -8 9 -28 19 -44 22 -16 3 -29 9 -29 14 0 5 -15 9 -34 9 -19 0 -38 5
-41 10 -4 6 -63 10 -145 10 -82 0 -141 -4 -145 -10z m293 -45 c23 -4 45 -11
48 -16 3 -5 11 -9 19 -9 31 0 165 -103 165 -127 0 -7 5 -13 10 -13 6 0 10 -9
10 -19 0 -11 5 -23 10 -26 6 -3 10 -35 10 -71 0 -80 -27 -143 -85 -199 -39
-38 -123 -99 -148 -108 -17 -5 1 -26 43 -47 22 -11 68 -47 103 -79 130 -122
161 -270 93 -443 -6 -16 -14 -28 -18 -28 -5 0 -8 -4 -8 -10 0 -32 -94 -115
-174 -154 -96 -46 -158 -58 -290 -58 -90 1 -127 6 -190 26 -116 37 -197 98
-232 176 -46 102 -45 166 4 279 26 60 88 120 195 185 l27 17 -57 46 c-32 26
-61 52 -66 59 -4 7 -13 19 -20 26 -7 7 -23 35 -37 62 -21 42 -24 61 -24 152 1
66 5 109 12 116 7 7 12 20 12 30 0 10 5 18 10 18 6 0 10 7 10 15 0 20 99 119
141 140 19 10 36 21 39 24 3 4 25 13 50 20 25 7 56 16 70 21 27 9 199 6 268
-5z"/>
<path d="M4386 1665 c-78 -27 -126 -96 -126 -179 0 -91 54 -152 211 -241 53
-30 100 -55 103 -55 14 0 76 73 91 107 9 21 21 46 26 55 5 10 9 51 9 93 0 80
-16 122 -65 171 -58 58 -164 79 -249 49z m154 -45 c0 -5 7 -10 15 -10 20 0 52
-28 77 -69 27 -43 29 -138 4 -195 -21 -51 -67 -111 -75 -100 -3 5 -26 20 -51
33 -80 43 -84 46 -98 59 -7 6 -17 12 -21 12 -15 0 -49 36 -70 73 -22 39 -29
107 -11 107 6 0 10 7 10 15 0 20 45 65 65 65 8 0 15 5 15 10 0 6 30 10 70 10
40 0 70 -4 70 -10z"/>
<path d="M4252 935 c-18 -19 -32 -39 -32 -45 0 -5 -3 -10 -8 -10 -7 0 -20 -28
-40 -91 -32 -98 3 -235 78 -309 135 -132 413 -63 433 107 16 132 -31 187 -288
337 -44 25 -87 46 -96 46 -8 0 -30 -16 -47 -35z m90 -32 c4 -10 57 -42 81 -50
9 -3 17 -9 17 -14 0 -5 9 -9 20 -9 11 0 20 -4 20 -8 0 -5 12 -15 28 -23 15 -8
33 -20 40 -26 7 -7 19 -16 26 -20 6 -5 24 -24 39 -44 43 -58 35 -139 -20 -196
-6 -7 -16 -13 -22 -13 -6 0 -11 -4 -11 -10 0 -5 -9 -10 -19 -10 -11 0 -23 -4
-26 -10 -3 -5 -37 -10 -75 -10 -51 0 -79 6 -112 23 -54 28 -58 32 -88 91 -20
41 -24 62 -24 135 1 86 5 99 55 180 13 20 63 30 71 14z"/>
<path d="M2307 1682 c-26 -28 -20 -72 16 -132 26 -44 43 -60 91 -85 56 -28 67
-30 198 -33 162 -5 188 4 188 62 0 55 -19 63 -166 69 -148 5 -184 17 -204 69
-7 18 -20 41 -28 51 -20 23 -74 22 -95 -1z"/>
<path d="M3465 1657 c-16 -12 -31 -25 -33 -29 -2 -5 -9 -8 -16 -8 -7 0 -21 -8
-32 -18 -10 -10 -48 -38 -84 -62 -36 -24 -66 -47 -68 -52 -2 -4 -9 -8 -15 -8
-7 0 -25 -12 -42 -28 -16 -15 -46 -39 -65 -54 -52 -39 -212 -197 -245 -243
-17 -22 -57 -74 -91 -115 -84 -104 -207 -268 -243 -325 l-30 -47 -32 64 c-44
88 -85 143 -128 171 -74 49 -124 45 -201 -18 -63 -52 -64 -74 -6 -115 56 -38
116 -110 116 -139 0 -11 3 -21 8 -21 4 0 13 -14 21 -32 11 -25 12 -37 2 -62
-7 -17 -15 -61 -18 -97 -8 -92 23 -159 120 -256 l72 -73 57 0 c31 0 60 5 63
10 3 6 19 10 36 10 29 0 35 10 29 50 -4 29 -19 33 -57 15 -20 -10 -56 -20 -79
-23 -39 -4 -45 -1 -86 39 -89 90 -123 194 -85 264 9 18 11 16 25 -20 8 -22 22
-71 32 -110 15 -63 20 -70 43 -73 15 -2 33 4 44 15 10 10 45 39 78 64 39 30
68 62 82 90 86 181 129 264 135 267 5 2 8 12 8 23 0 10 4 19 9 19 5 0 11 8 14
18 7 22 37 71 60 96 9 11 17 25 17 32 0 7 4 14 8 16 5 2 28 32 52 68 24 36 46
67 50 70 3 3 21 25 40 50 19 25 47 59 62 75 15 17 47 53 70 80 23 28 73 77
111 110 38 33 79 69 91 80 56 54 171 145 183 145 23 0 20 65 -4 93 -21 23 -41
21 -78 -6z m45 -40 c0 -7 -14 -21 -31 -31 -16 -10 -45 -32 -62 -49 -18 -18
-57 -52 -87 -77 -158 -129 -315 -286 -410 -410 -19 -25 -38 -47 -41 -50 -10
-8 -169 -258 -169 -265 0 -4 -13 -25 -28 -48 -35 -51 -84 -155 -106 -223 -13
-40 -26 -58 -62 -84 -25 -17 -47 -30 -49 -28 -6 5 -76 200 -83 228 -3 13 -12
31 -19 39 -8 8 -26 33 -40 55 -14 23 -48 67 -75 98 -27 32 -47 62 -43 68 9 15
73 12 99 -5 34 -22 84 -97 113 -168 31 -77 48 -97 84 -97 25 0 32 8 59 62 27
55 68 115 201 293 20 28 45 59 55 70 11 11 31 36 46 57 15 20 33 42 40 50 7 7
38 43 68 78 70 82 118 131 200 200 36 30 67 58 70 61 3 3 48 34 100 69 52 35
101 69 108 76 6 7 21 16 32 19 11 3 20 11 20 16 0 5 2 9 5 9 3 0 5 -6 5 -13z"/>
<path d="M2888 1658 c-6 -17 19 -56 44 -69 21 -11 48 3 48 25 -1 35 -82 74
-92 44z"/>
<path d="M1142 1472 c-41 -20 -92 -120 -92 -180 0 -50 31 -109 84 -161 43 -41
107 -69 90 -38 -5 8 -24 31 -42 51 -43 47 -72 101 -72 133 0 30 20 104 32 118
4 5 8 15 8 22 0 16 38 57 61 66 8 3 3 5 -11 6 -14 0 -40 -8 -58 -17z"/>
<path d="M1633 1311 c-39 -18 -113 -85 -113 -103 0 -4 16 -8 35 -8 23 0 35 5
35 13 0 22 84 105 111 110 l24 4 -25 1 c-14 1 -44 -7 -67 -17z"/>
<path d="M1404 1077 c-44 -15 -57 -51 -50 -139 20 -231 19 -246 -8 -293 -14
-24 -47 -62 -73 -84 -48 -40 -48 -41 -20 -41 39 0 137 71 137 100 0 5 5 10 10
10 6 0 10 6 10 14 0 8 6 16 12 18 15 5 13 207 -2 222 -13 13 -13 146 0 146 6
0 10 5 10 11 0 7 10 20 22 30 20 18 20 19 2 18 -10 -1 -33 -6 -50 -12z"/>
<path d="M1899 839 c81 -97 152 -164 193 -185 47 -24 78 -31 78 -16 0 8 -49
32 -67 32 -7 0 -13 6 -13 14 0 8 -22 36 -50 64 -27 28 -50 55 -50 61 0 6 -4
11 -10 11 -5 0 -10 5 -10 11 0 21 -29 39 -63 39 l-35 0 27 -31z"/>
<path d="M2198 623 c6 -2 18 -2 25 0 6 3 1 5 -13 5 -14 0 -19 -2 -12 -5z"/>
<path d="M1145 504 c-40 -20 -75 -75 -75 -119 0 -78 49 -195 82 -195 12 0 58
-50 58 -63 0 -31 57 -44 172 -39 36 1 48 6 53 21 12 40 -30 76 -60 51 -9 -8
-27 -10 -47 -6 -18 4 -48 9 -65 13 -18 3 -33 9 -33 14 0 5 -7 9 -16 9 -32 0
-64 51 -64 104 0 20 -4 36 -10 36 -14 0 -12 86 3 112 6 12 20 30 30 40 17 19
23 38 10 37 -5 0 -22 -7 -38 -15z"/>
<path d="M1550 305 c-14 -8 -39 -14 -56 -15 -35 0 -59 -22 -50 -45 4 -11 21
-15 66 -15 33 0 60 4 60 10 0 6 6 10 13 10 17 0 42 45 33 59 -10 15 -36 13
-66 -4z"/>
</g>
</svg>
